<?xml version="1.0" standalone="no"?>
<!DOCTYPE svg PUBLIC "-//W3C//DTD SVG 20010904//EN"
 "http://www.w3.org/TR/2001/REC-SVG-20010904/DTD/svg10.dtd">
<svg version="1.0" xmlns="http://www.w3.org/2000/svg"
 width="500.000000pt" height="500.000000pt" viewBox="0 0 500.000000 500.000000"
 preserveAspectRatio="xMidYMid meet">

<g transform="translate(0.000000,500.000000) scale(0.100000,-0.100000)"
fill="#000000" stroke="none">
<path d="M1150 4134 c-39 -91 -21 -203 47 -293 15 -19 20 -32 12 -29 -8 3 -59
24 -114 46 -160 63 -145 65 -145 -18 0 -51 6 -83 20 -112 11 -23 20 -43 20
-44 0 -1 -17 2 -37 7 -21 4 -39 6 -41 4 -13 -12 21 -131 48 -171 16 -25 30
-48 30 -51 0 -3 -39 -3 -86 1 l-86 7 7 -33 c9 -38 50 -124 65 -133 25 -16 5
-25 -56 -25 -63 0 -65 -1 -58 -22 10 -35 34 -80 61 -115 l24 -33 -26 0 -26 0
33 -62 c19 -36 48 -72 71 -89 l38 -27 -36 -12 -35 -12 31 -45 c18 -25 51 -57
75 -72 24 -14 44 -29 44 -32 0 -3 -16 -13 -35 -22 l-36 -17 27 -35 c14 -19 30
-35 34 -35 4 0 32 -22 63 -50 32 -27 65 -54 75 -59 14 -9 14 -12 3 -20 -10 -6
0 -16 37 -37 27 -15 48 -33 46 -38 -2 -6 13 -22 35 -35 21 -14 37 -30 35 -36
-6 -14 57 -49 112 -64 22 -6 51 -20 63 -30 13 -11 48 -25 79 -31 32 -6 85 -18
120 -27 45 -11 83 -14 129 -9 l66 7 -7 -56 c-5 -44 -2 -66 13 -100 l19 -43
-49 -48 c-27 -27 -49 -51 -49 -54 0 -12 81 -50 119 -56 46 -7 48 -13 26 -74
-22 -63 -19 -85 17 -115 17 -14 44 -46 60 -70 47 -71 105 -108 236 -152 105
-35 165 -66 195 -102 l25 -30 16 24 c23 34 86 68 205 109 58 20 118 45 135 56
33 20 93 80 118 118 9 13 31 31 49 40 29 15 34 23 37 58 2 24 -5 59 -17 87
l-20 47 32 0 c33 0 130 40 141 58 3 6 -17 31 -46 56 l-52 45 18 37 c12 26 17
57 15 98 l-2 61 62 -3 c35 -2 89 3 124 11 34 9 90 21 125 28 36 7 73 21 88 34
15 13 43 25 63 29 40 6 115 52 106 65 -2 5 13 21 36 35 22 15 37 31 34 36 -3
5 14 20 39 32 47 22 54 32 35 43 -5 4 9 19 33 35 24 15 75 57 113 93 l70 66
-42 17 c-24 9 -43 20 -43 23 0 3 20 17 45 30 27 14 57 42 75 69 31 47 31 62 1
62 -32 0 -30 11 11 48 32 29 88 115 88 137 0 3 -9 5 -20 5 -24 0 -26 13 -3 31
17 15 63 106 63 127 0 8 -20 12 -65 12 -36 0 -65 3 -65 6 0 3 13 22 29 42 16
20 36 61 45 90 l15 53 -92 -7 -92 -7 28 36 c34 45 57 108 57 157 l0 38 -35 -8
c-19 -4 -35 -7 -35 -6 0 0 9 25 20 54 19 50 28 172 13 172 -4 0 -64 -22 -135
-50 -70 -27 -131 -50 -135 -50 -4 0 5 12 19 28 73 76 96 208 53 299 l-20 42
-200 -165 c-110 -90 -243 -199 -295 -242 -133 -108 -247 -223 -310 -314 -29
-43 -56 -78 -59 -78 -3 0 -28 35 -56 76 -57 89 -52 93 -80 -78 -10 -60 -21
-108 -25 -108 -4 0 -12 12 -19 27 l-12 26 -54 -80 c-29 -44 -70 -94 -89 -110
-34 -27 -40 -29 -128 -28 -116 1 -129 9 -210 127 l-61 90 -16 -29 -15 -28 -12
41 c-6 22 -17 82 -24 132 -7 51 -16 92 -19 92 -3 0 -29 -36 -57 -80 l-51 -81
-38 58 c-67 102 -148 194 -225 257 -42 34 -98 80 -125 103 -28 23 -146 121
-263 217 l-212 177 -20 -47z m266 -331 c72 -62 127 -118 138 -139 21 -45 21
-44 -135 82 -80 65 -138 121 -158 152 -55 87 -58 88 155 -95z m2333 118 c-12
-22 -40 -58 -63 -80 -50 -49 -250 -211 -254 -206 -14 13 50 83 178 194 83 72
153 131 156 131 3 0 -5 -18 -17 -39z m-2394 -311 c44 -18 89 -42 100 -53 20
-19 20 -19 -20 -13 -57 10 -243 84 -290 116 -22 15 -49 37 -59 49 -16 17 0 13
85 -23 57 -24 140 -58 184 -76z m2535 79 c-19 -16 -51 -38 -70 -48 -59 -31
-220 -91 -264 -97 -37 -6 -40 -5 -26 9 16 17 355 165 380 166 8 0 0 -13 -20
-30z m35 -159 c-18 -30 -119 -64 -279 -95 -94 -18 -172 -32 -173 -31 -1 1 13
12 31 24 22 15 97 37 227 66 107 24 195 44 197 45 2 0 0 -4 -3 -9z m-2646 -40
c116 -26 194 -48 212 -61 33 -24 36 -29 12 -23 -10 2 -89 17 -176 33 -114 22
-171 38 -203 56 -77 45 -75 45 155 -5z m1936 -92 c-89 -95 -89 -96 -69 -59 17
30 108 121 122 121 3 0 -21 -28 -53 -62z m-1397 -18 c13 -14 30 -38 39 -55 19
-36 22 -39 -57 55 -56 66 -42 67 18 0z m-590 -51 c137 -9 185 -16 212 -30 35
-18 35 -18 -135 -13 -159 5 -247 19 -285 44 -20 13 -13 13 208 -1z m2727 -9
c-47 -22 -90 -27 -285 -34 l-145 -5 36 19 c35 19 207 36 379 38 l55 0 -40 -18z
m-2215 -26 c14 -8 17 -13 7 -10 -10 3 -27 6 -38 6 -10 0 -19 5 -19 10 0 14 21
12 50 -6z m1566 9 c-9 -9 -86 -33 -86 -26 0 6 63 32 79 33 8 0 11 -3 7 -7z
m-245 -50 c-18 -33 -61 -87 -61 -77 0 10 61 94 67 94 2 0 -1 -8 -6 -17z
m-1286 -13 c10 -11 15 -20 11 -20 -3 0 1 -12 11 -27 l17 -28 -27 24 c-18 17
-23 27 -16 32 8 4 1 13 -17 23 -17 9 -23 15 -13 16 9 0 24 -9 34 -20z m211
-42 c22 -43 8 -33 -27 20 -25 36 -27 42 -10 27 13 -11 29 -32 37 -47z m1252
41 c-37 -19 -53 -37 -23 -25 23 9 18 -8 -11 -35 -26 -24 -27 -24 -15 -1 7 12
9 26 6 31 -7 12 43 51 64 51 9 -1 -1 -10 -21 -21z m-1104 -114 c20 -66 39
-129 42 -140 9 -29 -56 53 -72 92 -12 28 -21 184 -10 172 2 -2 20 -58 40 -124z
m774 25 c-3 -47 -12 -70 -42 -115 -21 -31 -40 -55 -42 -52 -3 3 11 56 30 118
20 62 36 119 36 128 1 13 3 12 11 -3 6 -10 9 -44 7 -76z m-1507 25 c19 -8 32
-15 29 -15 -68 -12 -334 -25 -377 -18 -82 13 -100 27 -38 29 28 1 104 5 170 9
66 3 134 7 151 8 18 1 47 -5 65 -13z m2494 -1 c136 -6 139 -7 100 -21 -55 -19
-294 -17 -400 4 l-30 6 30 13 c19 9 53 12 95 9 36 -2 128 -7 205 -11z m-1579
-69 c12 -11 33 -31 48 -43 26 -24 50 -90 44 -120 -3 -13 -16 -5 -52 33 -54 58
-81 105 -95 167 l-10 43 22 -30 c12 -16 31 -39 43 -50z m414 14 c-16 -60 -94
-167 -132 -181 -13 -5 -14 0 -7 38 5 25 12 51 16 58 10 16 127 132 131 130 2
-1 -2 -21 -8 -45z m-670 -94 c14 -17 14 -18 -7 -7 -20 11 -79 78 -98 112 -9
15 77 -70 105 -105z m1136 83 c-18 -26 -22 -17 -5 14 6 11 13 17 16 15 3 -3
-2 -16 -11 -29z m-1386 1 c0 -6 -4 -7 -10 -4 -5 3 -10 11 -10 16 0 6 5 7 10 4
6 -3 10 -11 10 -16z m1221 4 c-12 -23 -111 -120 -111 -109 0 7 110 126 117
126 2 0 -1 -8 -6 -17z m-941 -181 c0 -2 -6 0 -12 5 -73 54 -101 79 -120 106
-15 21 4 8 55 -37 42 -38 77 -71 77 -74z m-614 100 c-8 -8 -271 -41 -327 -42
-63 0 -119 9 -119 19 0 13 383 47 417 37 18 -5 31 -11 29 -14z m1552 -1 c-13
-16 -52 -51 -88 -76 -36 -26 -56 -38 -45 -27 20 22 147 130 153 131 2 1 -7
-12 -20 -28z m942 -21 c14 -6 -52 -18 -107 -19 -56 -1 -264 22 -323 36 -24 5
-24 6 8 17 27 9 72 7 225 -10 106 -12 194 -22 197 -24z m-1908 -99 c31 -18 62
-39 70 -49 9 -11 0 -8 -27 8 -68 41 -124 80 -131 93 -4 6 1 5 12 -4 10 -9 45
-31 76 -48z m938 35 c-37 -36 -150 -105 -125 -76 11 12 41 33 66 45 25 13 51
31 58 39 8 9 16 16 19 16 4 0 -5 -11 -18 -24z m-1210 -16 c-80 -24 -86 -24
-35 1 22 10 54 18 70 18 22 0 12 -6 -35 -19z m1490 -15 c27 -14 50 -28 50 -30
0 -3 -13 1 -29 10 -16 8 -60 24 -98 35 -64 19 -65 20 -21 15 27 -2 70 -16 98
-30z m-1835 7 c-10 -9 -211 -66 -272 -77 -18 -4 -48 -3 -65 1 -29 6 -15 12
112 45 136 35 246 50 225 31z m1105 4 c0 -2 -7 -9 -15 -16 -13 -11 -14 -10 -9
4 5 14 24 23 24 12z m1220 -35 c116 -30 139 -39 116 -45 -34 -8 -73 -2 -211
36 -135 37 -156 47 -95 47 25 1 110 -17 190 -38z m-1370 19 c10 -5 29 -25 42
-42 l23 -33 -48 39 c-26 21 -47 40 -47 42 0 7 10 4 30 -6z m189 -29 c-24 -21
-46 -37 -48 -36 -6 7 29 49 51 62 42 23 41 13 -3 -26z m-879 25 c0 -2 -7 -7
-16 -10 -8 -3 -12 -2 -9 4 6 10 25 14 25 6z m657 -39 c-9 -24 14 -47 46 -47
24 0 28 -3 17 -10 -23 -15 -38 -12 -60 10 -21 21 -29 77 -9 65 5 -4 8 -12 6
-18z m623 19 c0 -6 -115 -76 -124 -76 -18 0 11 23 62 50 63 32 62 32 62 26z
m-868 -63 c19 -21 12 -19 -39 12 -35 21 -63 39 -63 40 0 11 83 -32 102 -52z
m514 12 c-7 -28 -38 -41 -63 -26 -16 9 -15 10 8 11 30 0 49 17 50 45 0 11 3
14 6 7 3 -7 2 -24 -1 -37z m-765 -16 c-36 -16 -71 -35 -78 -41 -7 -6 -13 -8
-13 -5 0 10 62 50 99 63 63 23 58 14 -8 -17z m1296 -9 c76 -44 73 -53 -5 -12
-78 41 -80 42 -61 42 8 0 37 -14 66 -30z m-1732 -22 c-85 -53 -170 -88 -226
-94 -64 -5 -64 -6 111 70 142 62 192 73 115 24z m2250 -29 c77 -33 142 -63
145 -66 17 -18 -114 14 -169 41 -202 101 -187 117 24 25z m-735 46 c0 -2 -23
-16 -51 -31 -28 -14 -48 -20 -44 -14 4 7 26 21 49 31 46 21 46 21 46 14z
m-843 -20 c20 -8 34 -18 30 -21 -3 -3 -22 4 -44 15 -45 24 -37 27 14 6z m-178
-27 c-19 -18 -45 -46 -57 -63 l-23 -30 17 35 c18 37 69 90 87 90 6 0 -5 -15
-24 -32z m1167 -10 c12 -12 27 -34 34 -48 7 -14 11 -23 8 -20 -2 3 -27 29 -54
59 -27 30 -40 49 -29 43 11 -5 30 -21 41 -34z m-1561 -1 c-70 -47 -195 -116
-220 -122 -17 -4 -39 -9 -50 -12 -11 -2 35 27 102 66 108 61 136 74 178 80 5
0 1 -5 -10 -12z m984 -4 c6 -12 5 -27 -6 -48 l-16 -30 -15 32 c-12 26 -13 35
-2 48 16 20 27 19 39 -2z m1103 -61 c65 -36 117 -67 115 -68 -1 -2 -19 1 -40
6 -33 7 -247 126 -247 136 0 13 69 -17 172 -74z m-1491 51 c13 -15 12 -15 -6
-6 -11 6 -27 13 -35 16 -10 4 -8 6 6 6 12 1 28 -6 35 -16z m759 2 c-33 -19
-50 -18 -26 0 11 8 27 15 35 15 10 -1 7 -6 -9 -15z m-970 -81 c-17 -41 -19
-44 -14 -14 7 37 23 74 30 68 2 -2 -5 -26 -16 -54z m1169 -8 c0 -14 -2 -16 -6
-6 -3 8 -12 29 -20 45 l-14 30 21 -24 c11 -13 20 -33 19 -45z m-949 44 c0 -12
-8 -12 -35 0 -18 8 -17 9 8 9 15 1 27 -3 27 -9z m745 0 c-28 -12 -37 -12 -30
0 3 6 16 10 28 9 21 0 21 -1 2 -9z m-1373 -65 c-86 -62 -129 -85 -155 -85 -14
0 173 127 206 140 47 19 37 8 -51 -55z m834 27 c-9 -8 -26 10 -26 26 1 15 2
15 15 -2 8 -11 13 -21 11 -24z m315 5 c-13 -12 -20 -15 -16 -7 14 26 28 41 33
35 3 -3 -5 -16 -17 -28z m881 -45 c54 -36 96 -67 94 -69 -12 -12 -172 85 -231
140 -31 28 52 -14 137 -71z m-1407 38 c-3 -5 -11 -10 -16 -10 -6 0 -7 5 -4 10
3 6 11 10 16 10 6 0 7 -4 4 -10z m-184 -56 c-9 -38 -9 -38 -10 -7 -1 33 10 74
16 57 2 -6 -1 -28 -6 -50z m595 29 c-10 -10 -19 5 -10 18 6 11 8 11 12 0 2 -7
1 -15 -2 -18z m503 -6 c0 -21 -1 -21 -9 -2 -12 28 -12 37 0 30 6 -3 10 -16 9
-28z m-639 -8 c0 -6 -4 -7 -10 -4 -5 3 -10 11 -10 16 0 6 5 7 10 4 6 -3 10
-11 10 -16z m182 -1 c-7 -7 -12 -8 -12 -2 0 6 3 14 7 17 3 4 9 5 12 2 2 -3 -1
-11 -7 -17z m278 -13 c0 -5 -5 -3 -10 5 -5 8 -10 20 -10 25 0 6 5 3 10 -5 5
-8 10 -19 10 -25z m-333 0 c26 -14 73 -29 103 -34 51 -8 77 -6 166 14 27 6 33
3 56 -33 22 -33 97 -93 129 -104 6 -2 -1 -28 -15 -58 -59 -128 -71 -261 -35
-360 72 -195 60 -314 -42 -425 -48 -52 -100 -81 -204 -115 -85 -28 -159 -64
-186 -91 -19 -19 -20 -19 -57 10 -40 32 -121 69 -213 95 -211 62 -299 257
-217 484 48 135 40 278 -23 404 -25 49 -25 50 17 73 20 11 57 43 83 72 l47 53
68 -14 c82 -17 161 -7 222 29 21 13 42 24 46 24 3 1 28 -10 55 -24z m-924 -3
c-97 -77 -134 -104 -169 -118 -49 -20 -48 -19 66 66 52 39 101 70 109 70 12 0
11 -4 -6 -18z m386 -37 c0 -26 -2 -27 -9 -10 -5 11 -9 31 -9 45 -1 20 1 22 9
10 5 -8 9 -28 9 -45z m1008 3 c-2 -13 -4 -5 -4 17 -1 22 1 32 4 23 2 -10 2
-28 0 -40z m488 -24 c55 -42 89 -73 75 -69 -49 13 -221 144 -190 144 8 0 60
-34 115 -75z m-1145 56 c0 -5 -2 -10 -4 -10 -3 0 -8 5 -11 10 -3 6 -1 10 4 10
6 0 11 -4 11 -10z m315 0 c-3 -5 -11 -10 -16 -10 -6 0 -7 5 -4 10 3 6 11 10
16 10 6 0 7 -4 4 -10z m-1000 -65 c-71 -63 -139 -113 -165 -120 -29 -9 137
130 172 144 36 15 36 13 -7 -24z m1758 -48 c48 -39 85 -72 82 -75 -8 -8 -90
47 -150 103 -82 75 -40 58 68 -28z m-1709 -9 c-55 -60 -78 -79 -114 -98 l-25
-13 20 23 c25 29 154 140 162 140 3 0 -16 -24 -43 -52z m1615 -23 c42 -41 70
-75 63 -75 -7 0 -47 34 -90 75 -42 41 -71 75 -63 75 7 0 48 -34 90 -75z
m-1566 -20 c-46 -54 -90 -91 -99 -82 -5 4 131 137 141 137 3 0 -15 -25 -42
-55z m1510 -20 c32 -36 55 -65 52 -65 -10 0 -116 102 -126 122 -19 35 16 8 74
-57z m-1399 53 c-13 -22 -88 -112 -104 -125 -33 -25 -20 0 31 59 49 58 69 77
77 78 2 0 0 -6 -4 -12z m1307 -51 c23 -29 50 -61 58 -71 15 -18 15 -18 -5 -8
-25 13 -131 144 -110 136 8 -3 33 -29 57 -57z m-1286 -35 c-26 -34 -54 -63
-63 -67 -17 -6 -14 -2 56 83 60 72 65 59 7 -16z m1235 -9 c28 -35 48 -63 43
-63 -11 0 -46 37 -93 99 -50 65 -11 36 50 -36z m-71 0 l33 -48 -36 39 c-31 34
-44 56 -33 56 2 0 18 -21 36 -47z m-1114 -8 c-15 -20 -29 -34 -32 -31 -3 2 7
21 22 41 15 19 30 33 33 31 3 -3 -8 -22 -23 -41z m1078 -45 c-6 -6 -33 30 -33
44 0 6 9 0 20 -14 10 -14 16 -27 13 -30z m-1047 2 c-17 -16 -18 -16 -5 5 7 12
15 20 18 17 3 -2 -3 -12 -13 -22z m-6 -132 c0 -5 -9 -24 -20 -42 l-20 -33 0
31 c0 29 15 54 32 54 4 0 8 -4 8 -10z m1090 -9 c12 -24 13 -51 2 -51 -9 0 -32
44 -32 60 0 17 19 11 30 -9z m-90 -41 c0 -16 -4 -31 -9 -34 -9 -6 -22 53 -14
67 9 15 23 -5 23 -33z"/>
<path d="M2348 2539 c-74 -10 -254 -64 -263 -80 -7 -10 6 -56 33 -119 13 -32
15 -33 22 -15 13 35 162 76 297 82 161 8 342 -26 395 -73 19 -18 18 -20 54 78
12 35 12 39 -9 53 -35 25 -168 63 -258 75 -95 11 -175 11 -271 -1z m74 -46 c3
-33 6 -38 26 -35 40 6 26 -25 -15 -31 -20 -4 -38 -5 -39 -4 -1 1 -5 26 -9 55
-6 48 -5 52 13 52 17 0 21 -7 24 -37z m96 -13 c2 -40 0 -50 -12 -50 -12 0 -16
11 -16 50 0 68 24 68 28 0z m120 38 c7 -7 12 -18 12 -25 0 -16 -27 -17 -32 -1
-7 19 -40 0 -36 -19 3 -13 12 -17 36 -15 18 1 32 -2 32 -6 0 -16 -25 -32 -50
-32 -34 0 -50 17 -50 55 0 38 16 55 50 55 14 0 31 -5 38 -12z m-297 -8 c22
-12 27 -68 7 -88 -20 -20 -65 -14 -82 10 -21 30 -20 44 4 68 22 22 42 25 71
10z m374 -32 c-13 -57 -24 -78 -38 -72 -11 4 -12 15 -4 54 8 40 14 50 29 50
17 0 19 -5 13 -32z m-497 0 c18 -18 14 -46 -8 -60 -11 -7 -20 -21 -20 -30 0
-36 -29 -17 -44 29 -18 52 -19 49 14 62 34 13 44 13 58 -1z m590 -51 c3 -58
-5 -70 -28 -42 -7 9 -20 15 -29 14 -40 -4 -41 2 -10 46 44 62 63 57 67 -18z"/>
<path d="M2290 2466 c0 -20 5 -26 21 -26 15 0 20 5 17 22 -5 34 -38 37 -38 4z"/>
<path d="M2175 2450 c-3 -5 1 -10 9 -10 9 0 16 5 16 10 0 6 -4 10 -9 10 -6 0
-13 -4 -16 -10z"/>
<path d="M2047 2394 c-33 -18 -33 -21 -1 -46 22 -18 25 -25 19 -60 l-7 -39 41
21 42 21 -20 25 c-11 14 -23 38 -26 54 -8 38 -14 41 -48 24z"/>
<path d="M2881 2369 c-7 -22 -20 -48 -30 -58 -17 -17 -16 -18 21 -38 l38 -21
0 41 c0 33 5 46 27 63 l27 21 -31 17 c-18 9 -34 16 -36 16 -2 0 -9 -18 -16
-41z"/>
<path d="M2455 2280 c-14 -27 -25 -51 -25 -54 0 -2 14 1 30 7 25 10 30 17 30
47 l1 35 24 -45 c13 -25 24 -42 25 -38 0 14 -44 98 -52 98 -4 0 -19 -22 -33
-50z"/>
<path d="M2403 2294 c-3 -10 -13 -14 -25 -10 -14 3 -22 -1 -25 -14 -3 -11 -15
-22 -26 -26 -11 -4 -29 -16 -38 -28 -16 -20 -16 -21 -1 -28 15 -6 15 -7 0 -7
-27 -1 -22 -13 27 -61 l44 -43 -2 29 c-2 22 -10 33 -37 46 -33 16 -34 17 -10
22 91 18 85 15 61 32 -11 8 -26 12 -31 9 -6 -3 -10 -1 -10 4 0 6 16 11 35 11
24 0 35 5 35 15 0 8 9 19 20 25 11 6 20 17 20 25 0 20 -29 19 -37 -1z m-40
-101 c-7 -2 -21 -2 -30 0 -10 3 -4 5 12 5 17 0 24 -2 18 -5z"/>
<path d="M2600 2276 c0 -18 -5 -26 -17 -26 -16 -1 -16 -2 -2 -13 9 -7 16 -16
17 -22 1 -5 16 -13 34 -17 33 -7 33 -7 -4 -4 -42 2 -44 0 -23 -28 12 -16 18
-17 46 -7 47 16 47 15 4 -29 -21 -22 -36 -42 -33 -45 3 -3 24 16 47 42 35 41
38 48 22 51 -13 2 -17 9 -14 21 2 10 -2 25 -10 32 -8 8 -18 25 -22 38 -4 12
-9 20 -12 17 -4 -3 -12 -1 -20 5 -10 9 -13 6 -13 -15z"/>
<path d="M2677 2122 c-15 -16 -26 -30 -24 -33 3 -2 7 -17 11 -33 6 -26 5 -28
-8 -17 -14 12 -16 10 -17 -10 -4 -67 -5 -79 -11 -84 -3 -3 -8 17 -12 45 l-7
51 -18 -23 c-19 -22 -19 -23 0 -49 27 -39 24 -42 -21 -19 -55 28 -63 25 -15
-6 22 -14 30 -22 18 -19 -28 8 -47 -22 -28 -42 18 -17 37 -17 61 2 14 10 16
17 7 22 -7 5 5 15 35 27 62 25 77 37 61 47 -10 6 -10 11 -1 22 7 8 10 21 7 29
-3 8 1 31 10 51 9 22 11 37 5 37 -5 0 -10 7 -10 15 0 22 -13 18 -43 -13z"/>
<path d="M2259 2108 c-11 -28 -11 -32 9 -49 25 -20 29 -39 8 -39 -11 0 -12 -7
-7 -27 5 -21 15 -29 34 -31 17 -2 27 -10 28 -20 2 -26 17 28 18 64 1 21 -5 34
-15 38 -10 4 -14 12 -10 22 7 19 -9 50 -33 64 -16 8 -21 4 -32 -22z"/>
<path d="M2561 2104 c0 -11 3 -14 6 -6 3 7 2 16 -1 19 -3 4 -6 -2 -5 -13z"/>
<path d="M2363 1995 c0 -22 2 -30 4 -17 2 12 2 30 0 40 -3 9 -5 -1 -4 -23z"/>
<path d="M2391 1964 c-11 -14 -25 -23 -31 -19 -17 11 -10 -29 9 -52 20 -23 51
-31 51 -13 0 6 7 10 15 10 13 0 14 4 5 20 -13 24 -30 26 -30 3 0 -13 -3 -14
-11 -6 -6 6 -19 9 -28 7 -9 -3 8 8 37 23 53 29 53 29 28 41 -22 10 -28 8 -45
-14z"/>
<path d="M2297 1913 c-11 -10 -8 -25 3 -18 6 4 17 1 25 -5 18 -15 20 1 3 18
-14 14 -22 15 -31 5z"/>
<path d="M2651 1906 c-9 -11 -6 -13 14 -13 20 0 23 2 14 13 -6 8 -13 14 -14
14 -1 0 -8 -6 -14 -14z"/>
<path d="M2464 1878 c1 -24 6 -32 24 -34 15 -3 22 1 22 12 0 11 5 14 17 9 15
-5 15 -3 -2 13 -11 11 -24 17 -28 15 -4 -3 -14 0 -21 6 -10 9 -13 4 -12 -21z
m36 -8 c0 -5 -4 -10 -10 -10 -5 0 -10 5 -10 10 0 6 5 10 10 10 6 0 10 -4 10
-10z"/>
<path d="M2240 1891 c0 -7 -5 -9 -12 -5 -7 5 -8 3 -3 -5 5 -9 10 -10 18 -2 6
6 8 14 4 18 -4 3 -7 1 -7 -6z"/>
<path d="M2703 1873 c-22 -15 -32 -43 -15 -43 14 0 54 47 45 53 -4 3 -18 -2
-30 -10z"/>
<path d="M2075 1820 c-4 -16 -15 -32 -26 -35 -10 -4 -19 -9 -19 -13 0 -8 41
-35 44 -30 1 2 15 21 31 42 27 37 27 39 10 52 -27 20 -33 18 -40 -16z"/>
<path d="M2863 1838 l-22 -11 30 -43 c27 -40 31 -42 54 -32 31 14 31 22 0 36
-17 8 -25 20 -25 37 0 27 -4 29 -37 13z"/>
<path d="M2340 1832 c0 -6 16 -16 35 -22 19 -6 35 -18 35 -26 0 -19 16 -18 24
2 9 23 9 22 -26 32 -18 6 -41 13 -50 17 -10 4 -18 3 -18 -3z"/>
<path d="M2586 1824 c-48 -17 -48 -17 -41 -36 8 -19 45 -12 45 8 0 8 4 14 8
14 5 0 17 7 28 15 24 18 11 18 -40 -1z"/>
<path d="M2110 1775 c-27 -39 -30 -49 -19 -59 18 -17 106 -50 189 -73 82 -22
318 -25 400 -4 94 23 210 71 210 87 0 21 -43 84 -57 84 -7 0 -13 -4 -13 -8 0
-10 -109 -48 -162 -58 -41 -7 -45 -16 -23 -54 22 -38 18 -46 -21 -46 -35 0
-35 0 -29 35 4 20 12 40 18 44 7 5 -17 6 -53 4 -129 -11 -364 37 -397 79 -9
13 -16 8 -43 -31z m74 -8 c15 -11 17 -19 9 -42 -10 -32 -33 -46 -33 -20 0 12
-6 15 -20 10 -22 -7 -25 2 -10 39 11 29 27 33 54 13z m645 -23 c20 -26 20 -51
0 -38 -6 3 -19 -2 -30 -12 -19 -17 -19 -16 -19 29 0 55 17 62 49 21z m-559 -9
c7 -9 10 -25 6 -40 -6 -22 -11 -26 -39 -23 -25 2 -33 8 -35 26 -7 44 41 70 68
37z m489 -17 c16 -46 -4 -62 -23 -17 -8 18 -12 37 -10 41 10 16 22 7 33 -24z
m-37 -17 c9 -31 0 -60 -9 -33 -3 6 -11 12 -19 12 -9 0 -13 -4 -9 -9 5 -9 -13
-27 -20 -20 -2 2 -6 20 -10 41 -6 30 -4 37 12 41 34 9 47 2 55 -32z m-373 10
c17 -17 21 -18 32 -5 8 10 20 13 33 9 12 -4 31 -6 44 -6 13 0 22 -5 22 -14 0
-8 5 -15 10 -15 6 0 10 7 10 15 0 8 7 15 14 15 13 0 13 -5 2 -37 -17 -49 -33
-52 -51 -11 -8 18 -14 25 -15 16 0 -18 -26 -48 -41 -48 -5 0 -18 9 -29 20 -11
11 -22 15 -25 10 -7 -12 -62 -13 -68 -2 -3 4 -2 22 0 40 6 38 32 43 62 13z
m213 -26 c0 -14 1 -30 2 -37 1 -6 -5 -13 -11 -15 -9 -3 -13 8 -13 36 0 44 19
58 22 16z"/>
<path d="M2227 1716 c-6 -15 1 -26 15 -26 4 0 8 9 8 20 0 23 -15 27 -23 6z"/>
<path d="M2680 1710 c0 -5 5 -10 11 -10 5 0 7 5 4 10 -3 6 -8 10 -11 10 -2 0
-4 -4 -4 -10z"/>
<path d="M2317 1696 c-4 -10 -5 -21 -2 -24 9 -9 17 6 13 25 -3 17 -4 17 -11
-1z"/>
<path d="M2396 1693 c-12 -12 -6 -33 9 -33 8 0 15 6 15 14 0 17 -14 28 -24 19z"/>
<path d="M2470 1781 c0 -10 19 -25 25 -20 1 2 -3 10 -11 17 -8 7 -14 8 -14 3z"/>
<path d="M2160 1635 c0 -7 -8 -19 -17 -24 -16 -9 -16 -12 -3 -21 8 -5 18 -10
22 -10 13 0 40 49 33 60 -9 15 -35 12 -35 -5z"/>
<path d="M2777 1644 c-7 -7 23 -65 33 -63 3 0 14 4 25 8 19 8 19 8 -3 20 -14
7 -21 18 -18 27 5 14 -24 20 -37 8z"/>
<path d="M2190 1595 c-30 -48 -19 -58 81 -79 128 -26 243 -30 354 -12 183 28
200 40 152 99 l-22 29 -84 -16 c-46 -9 -127 -16 -180 -16 -85 0 -124 4 -247
27 -28 5 -34 1 -54 -32z m98 0 c-1 -5 -9 -9 -18 -8 -9 2 -10 0 -2 -3 17 -8 15
-24 -3 -24 -8 0 -15 -4 -15 -10 0 -5 -4 -10 -10 -10 -11 0 -13 30 -4 55 7 17
57 18 52 0z m422 -6 c0 -13 8 -23 20 -26 27 -7 20 -28 -10 -28 -18 0 -26 7
-31 29 -5 16 -6 33 -3 38 10 15 24 8 24 -13z m-294 -5 c49 -9 35 -74 -16 -74
-28 0 -30 3 -30 36 0 21 -4 33 -10 29 -6 -4 -8 -11 -5 -16 4 -5 -4 -9 -17 -9
l-23 -1 23 -12 c29 -16 19 -27 -16 -18 -23 6 -26 12 -23 37 1 16 5 32 8 37 4
6 53 3 109 -9z m249 -14 c20 -39 19 -53 -4 -45 -11 3 -22 1 -26 -5 -15 -24
-26 -8 -19 28 11 63 25 69 49 22z m-68 -22 c2 -42 -3 -47 -23 -20 -13 16 -13
16 -14 0 0 -10 -7 -18 -15 -18 -10 0 -15 10 -15 33 0 41 7 49 40 45 21 -3 25
-8 27 -40z m-77 22 c0 -5 -8 -10 -17 -10 -15 0 -16 -2 -3 -10 10 -6 11 -10 3
-10 -7 0 -13 -4 -13 -10 0 -5 5 -9 11 -7 6 1 14 -4 16 -10 3 -8 -4 -13 -15
-13 -39 0 -48 9 -44 45 4 31 8 35 33 35 16 0 29 -4 29 -10z"/>
<path d="M2400 1551 c0 -12 5 -21 10 -21 6 0 10 6 10 14 0 8 -4 18 -10 21 -5
3 -10 -3 -10 -14z"/>
<path d="M2268 3582 l-48 -3 0 -115 0 -114 45 0 45 0 0 40 c0 39 1 40 33 40
50 0 77 24 77 69 0 20 -6 45 -13 55 -15 21 -72 32 -139 28z m72 -78 c0 -8 -7
-14 -15 -14 -8 0 -15 9 -15 20 0 13 5 18 15 14 8 -4 15 -12 15 -20z"/>
<path d="M2654 3576 c-47 -21 -74 -61 -74 -113 0 -38 5 -50 34 -79 29 -29 41
-34 83 -34 28 0 58 7 71 16 21 15 22 17 6 43 -14 23 -23 27 -58 27 -37 -1 -41
2 -44 25 -4 36 22 56 57 42 25 -9 29 -7 44 19 21 36 17 44 -31 58 -46 12 -50
12 -88 -4z"/>
<path d="M2460 3465 l0 -115 40 0 40 0 0 115 0 115 -40 0 -40 0 0 -115z"/>
<path d="M1860 1230 c0 -33 3 -40 20 -40 19 0 20 -7 20 -145 0 -138 -1 -145
-20 -145 -17 0 -20 -7 -20 -45 l0 -45 100 0 100 0 0 45 c0 39 -3 45 -21 45
-18 0 -20 5 -17 48 l3 47 70 3 c65 3 73 5 108 40 35 34 37 40 37 97 0 57 -2
63 -38 98 l-38 37 -152 0 -152 0 0 -40z m270 -95 l0 -55 -55 0 -55 0 0 55 0
55 55 0 55 0 0 -55z"/>
<path d="M2300 1230 c0 -33 3 -40 20 -40 19 0 20 -7 20 -145 0 -138 -1 -145
-20 -145 -17 0 -20 -7 -20 -45 l0 -45 105 0 105 0 0 41 c0 32 -4 42 -20 46
-17 4 -20 14 -20 55 0 45 2 49 22 46 24 -3 83 -94 68 -103 -6 -4 -10 -24 -10
-46 l0 -39 90 0 90 0 0 45 c0 41 -2 45 -25 45 -19 0 -31 11 -55 52 l-29 53 34
35 c32 32 35 41 35 93 0 51 -3 60 -37 97 l-37 40 -158 0 -158 0 0 -40z m280
-95 l0 -55 -55 0 -55 0 0 55 0 55 55 0 55 0 0 -55z"/>
<path d="M2790 1230 c0 -33 3 -40 20 -40 19 0 20 -7 20 -145 0 -138 -1 -145
-20 -145 -17 0 -20 -7 -20 -45 l0 -46 103 3 102 3 0 40 c0 34 -3 40 -23 43
-21 3 -23 8 -20 50 l3 47 58 3 58 3 -3 37 -3 37 -57 3 -58 3 0 54 0 55 60 0
c53 0 60 -2 60 -20 0 -17 7 -20 40 -20 l40 0 0 60 0 60 -180 0 -180 0 0 -40z"/>
</g>
</svg>
